<svg id="Layer_1" data-name="Layer 1" xmlns="http://www.w3.org/2000/svg" viewBox="0 0 192 64"><defs><style>.cls-1{fill:#fff;}</style></defs><title>Artboard 1</title><path class="cls-1" d="M27.72,8.23A20.34,20.34,0,1,0,48.07,28.57,20.34,20.34,0,0,0,27.72,8.23Zm0,33.07A12.73,12.73,0,1,1,40.45,28.57,12.73,12.73,0,0,1,27.72,41.3Z"/><circle class="cls-1" cx="8.71" cy="9.73" r="4.83"/><circle class="cls-1" cx="48.52" cy="50.31" r="7.82"/><path class="cls-1" d="M63.41,19.34h5.82V30.67h.1l5.5-11.32h6.11l-6,12.3,5.71,11.78h-6.4l-5-10h-.1v10H63.41Z"/><path class="cls-1" d="M102.33,43.42H96.28l-1-4H89.15l-1,4H82.2L89,19.34h6.53Zm-8.15-8.35a99.74,99.74,0,0,1-2-10.22h-.08q-.69,5-1.94,10.22Z"/><path class="cls-1" d="M102.71,19.34h5.59l3.3,14.52h.08l3-14.52h5.07l3,14.35h.08L126,19.34h5.74l-6.15,24.07h-5.26l-2.44-10.77q-.4-1.77-.67-3.41h-.08q-.48,2.79-.69,3.73L114,43.42h-5.19Z"/><path class="cls-1" d="M152.33,43.42h-6.05l-1-4h-6.15l-1,4H132.2L139,19.34h6.53Zm-8.15-8.35a99.46,99.46,0,0,1-2-10.22h-.08q-.69,5-1.94,10.22Z"/><path class="cls-1" d="M155.82,19.34h5.82v18.5h4.61v5.57H155.82Z"/></svg>