<svg id="Layer_1" data-name="Layer 1" xmlns="http://www.w3.org/2000/svg" viewBox="0 0 192 64"><defs><style>.cls-1{fill:#fff;}</style></defs><title>Artboard 1</title><g id="PUTIH"><path class="cls-1" d="M28.06,8.56A20.34,20.34,0,1,0,48.4,28.9,20.34,20.34,0,0,0,28.06,8.56Zm0,33.07A12.73,12.73,0,1,1,40.78,28.9,12.73,12.73,0,0,1,28.06,41.63Z"/><circle class="cls-1" cx="8.04" cy="9.06" r="4.83"/><circle class="cls-1" cx="49.85" cy="51.65" r="7.82"/><path class="cls-1" d="M63.75,19.68h5.82V31h.1l5.5-11.32h6.11l-6,12.3L81,43.75h-6.4l-5-10h-.1v10H63.75Z"/><path class="cls-1" d="M102.67,43.75H96.62l-1-4H89.49l-1,4H82.53l6.8-24.07h6.53ZM94.52,35.4a99.74,99.74,0,0,1-2-10.22h-.08q-.69,5-1.94,10.22Z"/><path class="cls-1" d="M103,19.68h5.59l3.3,14.52H112l3-14.52h5.07l3,14.35h.08l3.15-14.35h5.74l-6.15,24.07h-5.26L118.24,33q-.4-1.77-.67-3.41h-.08q-.48,2.79-.69,3.73l-2.42,10.44h-5.19Z"/><path class="cls-1" d="M152.67,43.75h-6.05l-1-4h-6.15l-1,4h-5.94l6.8-24.07h6.53Zm-8.15-8.35a99.46,99.46,0,0,1-2-10.22h-.08q-.69,5-1.94,10.22Z"/><path class="cls-1" d="M156.16,19.68H162v18.5h4.61v5.57H156.16Z"/></g></svg>